Title                            : Seconds Apart
Year                             : 2011
Genre                            : Horror | Thriller
iMDB URL                         : http://www.imdb.com/title/tt1601475/

Complete name                    : Seconds.Apart.2011.BRRIP.720P.H264-ZEKTORM.mp4
Format                           : MPEG-4
Format profile                   : Base Media
Codec ID                         : isom
File size                        : 1.75 GiB
Duration                         : 1h 25mn
Overall bit rate                 : 2945 Kbps
Subtitles                        : English (Format: srt)

Video
ID                               : 1
Format                           : AVC
Format/Info                      : Advanced Video Codec
Format profile                   : High@L4.0
Format settings, CABAC           : Yes
Format settings, ReFrames        : 9 frames
Codec ID                         : avc1
Codec ID/Info                    : Advanced Video Coding
Duration                         : 1h 25mn
Bit rate mode                    : Variable
Bit rate                         : 2505 Kbps
Width                            : 1280 pixels
Height                           : 720 pixels
Display aspect ratio             : 16/9
Frame rate mode                  : Constant
Frame rate                       : 25.000 fps
Resolution                       : 24 bits
Colorimetry                      : 4:2:0
Scan type                        : Progressive
Bits/(Pixel*Frame)               : 0.109
Stream size                      : 1.49 GiB (85%)
Title                            : Video
Writing library                  : x264

Audio
ID                               : 2
Format                           : AAC
Format/Info                      : Advanced Audio Codec
Format version                   : Version 4
Format profile                   : LC
Format settings, SBR             : No
Codec ID                         : 40
Duration                         : 1h 25mn
Bit rate mode                    : Variable
Bit rate                         : 436 Kbps
Maximum bit rate                 : 540 Kbps
Channel(s)                       : 6 channels
Channel positions                : Front: L C R, Rear: L R, LFE
Sampling rate                    : 48.0 KHz
Resolution                       : 16 bits
Stream size                      : 266 MiB (15%)
Language                         : English


Screenshots:

[img]http://img11.imageshack.us/img11/5483/snapsa1.png[/img]

[img]http://img5.imageshack.us/img5/7997/snapsa2.png[/img]

[img]http://img148.imageshack.us/img148/7973/snapsa3.png[/img]

[img]http://img194.imageshack.us/img194/7013/snapsa4.png[/img]

[img]http://img542.imageshack.us/img542/6176/snapsa5.png[/img]
